<svg width="198" height="33" viewBox="0 0 198 33" fill="none" xmlns="http://www.w3.org/2000/svg">
<path d="M19.0206 7.83493L17.9351 5.0927L12.4289 7.27279L14.7969 1.79905C14.4439 1.57653 13.8581 1.28039 13.4873 1.11393C11.1395 0.0601697 8.50752 0.0503359 6.11516 0.997985C3.72285 1.94505 1.84239 3.76755 0.820464 6.12877C-1.14442 10.6699 0.658981 15.9382 4.87438 18.3099C5.14462 18.4619 5.54513 18.6699 5.83555 18.7953C6.28718 18.9903 6.76842 19.1546 7.23463 19.2759L9.60103 13.8076L11.781 19.3137L14.5232 18.2281L12.3431 12.7217L17.778 15.0736L18.9495 12.3671L13.5143 10.015L19.0206 7.83493Z" fill="#A653FF"/>
<path d="M19.1616 29.2235H0V32.0848H19.1616V29.2235Z" fill="#A653FF"/>
<path d="M105.414 16.7806C106.16 16.7806 106.829 16.962 107.419 17.3243C108.009 17.6874 108.481 18.1825 108.834 18.8091C109.189 19.4367 109.365 20.1429 109.365 20.9266V32.1285H106.298V21.1615C106.298 20.8283 106.185 20.5491 105.959 20.3235C105.733 20.0986 105.453 19.9852 105.118 19.9852C104.784 19.9852 104.519 20.0885 104.322 20.294C104.126 20.5004 103.968 20.7798 103.85 21.132L101.02 29.1C100.626 30.1981 100.091 31.0068 99.4124 31.5262C98.7334 32.0454 97.8533 32.3047 96.7727 32.3047C96.0248 32.3047 95.3566 32.1243 94.7675 31.761C94.1776 31.3986 93.7099 30.9037 93.3665 30.2763C93.0223 29.6495 92.8499 28.9431 92.8499 28.1597L92.8499 10.132H95.8876L95.8876 27.9239C95.8876 28.2577 96.0004 28.5371 96.2267 28.762C96.453 28.9876 96.7332 29.1 97.0673 29.1C97.4014 29.1 97.6766 28.9969 97.8935 28.7913C98.1091 28.5859 98.2765 28.3065 98.3943 27.9533L101.285 19.8679C101.678 18.7505 102.224 17.9569 102.921 17.4862C103.619 17.0156 104.45 16.7806 105.414 16.7806Z" fill="#A653FF"/>
<path d="M86.6937 12.6868H83.643V16.9732H81.2617V19.7331H83.6723V27.366C83.6723 28.247 83.8631 29.0495 84.2447 29.7733C84.6256 30.498 85.1537 31.0699 85.8283 31.4907C86.5029 31.9118 87.2804 32.1221 88.1608 32.1221H90.4775V29.2742H88.6003C88.0722 29.2742 87.6177 29.0888 87.2368 28.7162C86.8552 28.3451 86.6644 27.8945 86.6644 27.366V19.7331H90.4775V16.9732H86.6937L86.6937 12.6868Z" fill="#A653FF"/>
<path fill-rule="evenodd" clip-rule="evenodd" d="M49.3439 17.8214C48.2582 17.1358 47.0589 16.7929 45.748 16.7929C44.3777 16.7929 43.1448 17.1358 42.0492 17.8214C40.9528 18.5071 40.0825 19.4419 39.4366 20.6271C38.7909 21.8124 38.4676 23.1193 38.4676 24.5492C38.4676 25.9985 38.7858 27.3105 39.4216 28.4856C40.0574 29.661 40.9385 30.5913 42.0635 31.277C43.1891 31.9626 44.4657 32.3047 45.8946 32.3047C47.3228 32.3047 48.5222 32.0113 49.4912 31.4238C50.4595 30.8362 51.1883 30.1556 51.6782 29.3818C52.1666 28.6081 52.4506 27.9082 52.5292 27.2812H49.3882C49.2903 27.6339 49.0893 27.9818 48.7861 28.324C48.4828 28.6668 48.0916 28.9559 47.6125 29.1907C47.1326 29.4262 46.5597 29.5434 45.8946 29.5434C44.6617 29.5434 43.6833 29.1663 42.9588 28.4119C42.2351 27.6583 41.7946 26.6842 41.6379 25.489H52.7345C52.7738 25.0781 52.7931 24.706 52.7931 24.3725C52.7931 23.0211 52.4899 21.7629 51.8834 20.5976C51.2763 19.4326 50.4302 18.5071 49.3439 17.8214ZM41.7259 23.1973C41.9218 22.1209 42.3717 21.2441 43.0769 20.5683C43.7813 19.8928 44.6717 19.555 45.748 19.555C46.4717 19.555 47.1083 19.716 47.6561 20.0394C48.2039 20.3623 48.6494 20.7988 48.992 21.3464C49.3339 21.8954 49.5641 22.5122 49.6814 23.1973H41.7259Z" fill="#A653FF"/>
<path fill-rule="evenodd" clip-rule="evenodd" d="M66.1012 19.2314C65.5524 18.4677 64.8677 17.8701 64.0449 17.4392C63.2229 17.0083 62.3128 16.7929 61.3141 16.7929C60.0806 16.7929 58.9594 17.1358 57.9514 17.8214C56.9426 18.5071 56.1348 19.4419 55.5288 20.6271C54.9214 21.8124 54.6181 23.1193 54.6181 24.5492C54.6181 25.9793 54.9214 27.2862 55.5288 28.4713C56.1348 29.6567 56.9426 30.5913 57.9514 31.277C58.9594 31.9626 60.0806 32.3047 61.3141 32.3047C62.3128 32.3047 63.2128 32.0951 64.0156 31.6735C64.8183 31.2527 65.5138 30.6501 66.1012 29.8663V32.1287H69.1261V16.9691H66.1012V19.2314ZM65.5431 26.9434C65.1904 27.6777 64.696 28.2559 64.06 28.6767C63.4232 29.0983 62.7135 29.3081 61.9308 29.3081C61.128 29.3081 60.3982 29.0933 59.7429 28.6618C59.0868 28.2317 58.5831 27.6533 58.2304 26.929C57.8777 26.204 57.7017 25.411 57.7017 24.5492C57.7017 23.6876 57.8827 22.8888 58.2454 22.1544C58.6075 21.4201 59.1112 20.8475 59.7572 20.436C60.404 20.0245 61.128 19.819 61.9308 19.819C62.7135 19.819 63.4232 20.0245 64.06 20.436C64.696 20.8475 65.1904 21.4158 65.5431 22.1401C65.8951 22.8645 66.0718 23.6674 66.0718 24.5492C66.0718 25.411 65.8951 26.209 65.5431 26.9434Z" fill="#A653FF"/>
<path d="M72.5242 19.3192C72.9641 18.5969 73.5462 18.0259 74.2706 17.6055C74.9944 17.1859 75.7867 16.9753 76.6485 16.9753H79.4368V19.7295H76.7951C76.2666 19.7295 75.8218 19.9251 75.4592 20.3156C75.0973 20.7068 74.9164 21.175 74.9164 21.7216V32.1221H71.8634V21.7216C71.8634 20.843 72.0837 20.0422 72.5242 19.3192Z" fill="#A653FF"/>
<path d="M140.023 17.3362C139.434 16.9742 138.765 16.7929 138.019 16.7929C137.055 16.7929 136.215 17.0277 135.497 17.498C134.78 17.9683 134.224 18.7613 133.831 19.8778L130.942 27.9567C130.824 28.3289 130.661 28.6131 130.455 28.8093C130.248 29.0046 129.978 29.1026 129.644 29.1026C129.31 29.1026 129.04 28.9903 128.833 28.7648C128.627 28.5402 128.524 28.261 128.524 27.9274V20.9356C128.524 20.1526 128.347 19.4469 127.993 18.8198C127.639 18.1938 127.167 17.699 126.578 17.3362C125.988 16.9742 125.319 16.7929 124.573 16.7929C123.61 16.7929 122.774 17.0277 122.067 17.498C121.359 17.9683 120.808 18.7613 120.415 19.8778L117.525 27.9567C117.388 28.3289 117.221 28.6131 117.025 28.8093C116.828 29.0046 116.562 29.1026 116.228 29.1026C115.894 29.1026 115.614 28.9903 115.388 28.7648C115.161 28.5402 115.049 28.261 115.049 27.9274V16.9691H112.011V28.163C112.011 28.9458 112.184 29.6517 112.528 30.278C112.871 30.9048 113.339 31.3994 113.929 31.7614C114.518 32.1244 115.186 32.3047 115.934 32.3047C117.014 32.3047 117.904 32.0457 118.602 31.5269C119.3 31.0079 119.845 30.1998 120.238 29.1026L123.039 21.1409L123.098 21.053C123.197 20.7203 123.339 20.461 123.526 20.2742C123.712 20.0881 123.963 19.995 124.278 19.995C124.612 19.995 124.892 20.1083 125.118 20.333C125.344 20.5584 125.457 20.8374 125.457 21.1704V28.163C125.457 28.9458 125.629 29.6517 125.974 30.278C126.317 30.9048 126.784 31.3994 127.374 31.7614C127.963 32.1244 128.631 32.3047 129.379 32.3047C130.46 32.3047 131.345 32.0457 132.033 31.5269C132.72 31.0079 133.261 30.1998 133.655 29.1026L136.485 21.1409L136.514 21.053C136.632 20.7203 136.79 20.4611 136.986 20.2742C137.182 20.0881 137.419 19.995 137.694 19.995C138.028 19.995 138.313 20.1083 138.549 20.333C138.785 20.5584 138.903 20.8374 138.903 21.1704V32.1287H141.94V20.9356C141.94 20.1526 141.768 19.4469 141.424 18.8199C141.079 18.1938 140.613 17.699 140.023 17.3362Z" fill="#A653FF"/>
<path fill-rule="evenodd" clip-rule="evenodd" d="M151.58 16.7929C152.934 16.7929 154.171 17.1408 155.29 17.8358C156.409 18.5315 157.292 19.4712 157.94 20.6564C158.588 21.8417 158.912 23.1385 158.912 24.5492C158.912 25.9591 158.588 27.2567 157.94 28.4414C157.292 29.6272 156.409 30.5671 155.29 31.262C154.171 31.9576 152.934 32.3047 151.58 32.3047H151.55C150.176 32.3047 148.92 31.9576 147.781 31.262C146.643 30.5671 145.75 29.6272 145.102 28.4414C144.454 27.2567 144.13 25.9591 144.13 24.5492C144.13 23.1385 144.454 21.8417 145.102 20.6564C145.75 19.4712 146.643 18.5315 147.781 17.8358C148.92 17.1408 150.176 16.7929 151.55 16.7929H151.58ZM153.759 28.6618C154.407 28.2317 154.917 27.6533 155.29 26.929C155.663 26.204 155.849 25.411 155.849 24.5492C155.849 23.7068 155.663 22.9239 155.29 22.1989C154.917 21.4746 154.407 20.8912 153.759 20.4504C153.111 20.0101 152.385 19.7897 151.58 19.7897H151.55C150.726 19.7897 149.985 20.0051 149.327 20.436C148.669 20.8669 148.154 21.4451 147.781 22.1696C147.408 22.8944 147.222 23.6876 147.222 24.5492C147.222 25.411 147.408 26.204 147.781 26.929C148.154 27.6533 148.669 28.2317 149.327 28.6618C149.985 29.0933 150.726 29.3081 151.55 29.3081H151.58C152.385 29.3081 153.111 29.0933 153.759 28.6618Z" fill="#A653FF"/>
<path d="M166.603 27.941C166.486 28.2952 166.324 28.5754 166.118 28.7815C165.912 28.9877 165.642 29.0911 165.309 29.0911C164.975 29.0911 164.696 28.9783 164.47 28.7521C164.244 28.5266 164.132 28.2464 164.132 27.9116V16.9138H161.102V28.148C161.102 29.3469 161.455 30.3396 162.161 31.1253C162.867 31.9119 163.789 32.3047 164.927 32.3047C166.025 32.3047 166.952 32.0153 167.707 31.4349C168.462 30.856 169.064 29.9659 169.516 28.767L173.694 16.9138L170.516 16.8842L166.603 27.941Z" fill="#A653FF"/>
<path fill-rule="evenodd" clip-rule="evenodd" d="M181.065 16.7929C182.376 16.7929 183.575 17.1358 184.661 17.8214C185.747 18.5071 186.594 19.4326 187.201 20.5976C187.807 21.7629 188.11 23.0211 188.11 24.3725C188.11 24.706 188.091 25.0781 188.052 25.489H176.955C177.112 26.6842 177.552 27.6583 178.276 28.4119C179.001 29.1663 179.979 29.5434 181.212 29.5434C181.877 29.5434 182.45 29.4262 182.93 29.1907C183.409 28.9559 183.8 28.6668 184.103 28.324C184.407 27.9818 184.607 27.6339 184.705 27.2812H187.846C187.768 27.9082 187.484 28.6081 186.995 29.3818C186.506 30.1556 185.777 30.8362 184.808 31.4238C183.839 32.0113 182.64 32.3047 181.212 32.3047C179.783 32.3047 178.506 31.9626 177.381 31.277C176.256 30.5913 175.375 29.661 174.739 28.4856C174.103 27.3105 173.785 25.9985 173.785 24.5492C173.785 23.1193 174.108 21.8124 174.754 20.6271C175.4 19.4419 176.27 18.5071 177.366 17.8214C178.462 17.1358 179.695 16.7929 181.065 16.7929ZM178.394 20.5683C177.689 21.2441 177.239 22.1209 177.043 23.1973H184.999C184.881 22.5122 184.651 21.8954 184.309 21.3464C183.967 20.7988 183.521 20.3623 182.973 20.0394C182.425 19.716 181.789 19.555 181.065 19.555C179.989 19.555 179.099 19.8928 178.394 20.5683Z" fill="#A653FF"/>
<path d="M195.085 16.9753C194.224 16.9753 193.431 17.1859 192.707 17.6055C191.983 18.0259 191.401 18.5969 190.961 19.3192C190.521 20.0422 190.3 20.843 190.3 21.7216V32.1221H193.353V21.7216C193.353 21.175 193.534 20.7068 193.896 20.3156C194.259 19.9251 194.703 19.7295 195.232 19.7295H197.874V16.9753H195.085Z" fill="#A653FF"/>
</svg>
